<?xml version="1.0" encoding="UTF-8" standalone="no"?>
<svg
   xmlns:dc="http://purl.org/dc/elements/1.1/"
   xmlns:cc="http://creativecommons.org/ns#"
   xmlns:rdf="http://www.w3.org/1999/02/22-rdf-syntax-ns#"
   xmlns:svg="http://www.w3.org/2000/svg"
   xmlns="http://www.w3.org/2000/svg"
   id="svg909"
   version="1.1"
   viewBox="0 0 270.93333 270.93333"
   height="1024"
   width="1024">
  <defs
     id="defs903" />
  <metadata
     id="metadata906">
    <rdf:RDF>
      <cc:Work
         rdf:about="">
        <dc:format>image/svg+xml</dc:format>
        <dc:type
           rdf:resource="http://purl.org/dc/dcmitype/StillImage" />
        <dc:title></dc:title>
      </cc:Work>
    </rdf:RDF>
  </metadata>
  <g
     transform="translate(0,-26.06671)"
     id="layer1">
    <path
       id="path1519"
       d="m 111.24612,296.28238 c -5.0415,-2.01186 -5.8718,-4.33133 -7.71029,-21.53888 -0.87325,-8.17325 -1.69787,-14.95685 -1.83245,-15.07468 -0.13451,-0.11772 -2.938925,-1.30485 -6.231845,-2.63784 l -5.98718,-2.42363 -12.0759,9.69903 c -13.58273,10.90928 -15.08364,11.59669 -20.22256,9.26176 -3.46809,-1.57579 -33.07629,-31.04538 -34.21051,-34.05037 -0.99342,-2.63191 -0.89475,-5.57705 0.26181,-7.81401 0.53797,-1.04055 5.06084,-6.95004 10.05078,-13.13222 l 9.07262,-11.24032 -2.20817,-5.20547 c -1.21449,-2.86301 -2.36728,-5.67372 -2.56176,-6.24603 -0.28253,-0.83136 -3.38407,-1.34945 -15.42558,-2.57677 -16.3661805,-1.66811 -17.9424005,-2.13613 -20.6304805,-6.12577 -1.50332995,-2.23123 -1.51886995,-2.4937 -1.51886995,-25.65093 0,-31.38151 -1.39744005,-29.37668 22.14935045,-31.77666 12.05241,-1.22845 15.14109,-1.74468 15.41694,-2.57677 0.18979,-0.57232 1.3302,-3.37821 2.53435,-6.23534 l 2.18934,-5.19474 -8.96717,-11.10015 c -4.93193,-6.105076 -9.44245,-12.019409 -10.02334,-13.142946 -1.30608,-2.526164 -1.34842,-5.522142 -0.11821,-8.367525 0.51585,-1.19315 8.02298,-9.195126 16.68249,-17.782161 17.334,-17.188898 18.67625,-18.112617 23.84159,-16.407563 1.40479,0.463694 7.7242,5.01352 14.13572,10.177298 l 11.59518,9.338709 6.00338,-2.430254 c 3.30186,-1.336606 6.096165,-2.509296 6.209575,-2.605943 0.11337,-0.09657 0.94515,-6.927336 1.8483,-15.179301 1.74487,-15.942967 2.26651,-17.748455 5.91379,-20.469282 1.83311,-1.367493 2.73174,-1.425843 24.84196,-1.613118 32.10129,-0.271897 30.44181,-1.420584 32.90825,22.779063 0.81251,7.972087 1.52415,14.502462 1.58139,14.51194 0.14292,0.02293 10.71727,4.365041 11.59763,4.761493 0.38992,0.17556 6.00131,-3.945632 12.46975,-9.158231 7.03007,-5.665184 12.77752,-9.784236 14.28843,-10.240133 4.988,-1.505032 6.14594,-0.674113 24.05097,17.258485 l 16.46801,16.493356 0.27582,3.917323 c 0.32792,4.657078 0.44511,4.457209 -10.60897,18.09614 -4.19786,5.17947 -7.92859,9.79603 -8.29055,10.25901 -0.66379,0.84911 2.98611,11.10744 4.52252,12.71083 0.39176,0.40886 7.22073,1.41957 15.17545,2.24605 7.95473,0.82649 15.23436,1.90419 16.17696,2.39489 2.71273,1.41226 4.80908,4.0433 5.46123,6.85418 0.78327,3.37612 0.78327,41.58659 0,44.96273 -0.65138,2.80752 -2.74807,5.44167 -5.45176,6.84927 -0.93737,0.488 -8.217,1.5621 -16.17695,2.38691 -7.95995,0.82478 -14.79317,1.83773 -15.18493,2.25095 -0.39177,0.41324 -1.71657,3.25197 -2.944,6.30828 l -2.23171,5.55692 9.50616,11.81541 c 5.22839,6.49848 9.6996,12.58631 9.93606,13.52855 0.23642,0.94222 0.27346,3.10118 0.0823,4.79765 -0.3373,2.99286 -0.83547,3.57313 -16.76564,19.52785 -17.84832,17.87586 -19.01235,18.71062 -24.00096,17.21161 -1.52237,-0.45748 -7.19597,-4.53357 -14.26563,-10.2489 -6.4559,-5.21915 -12.06727,-9.34511 -12.46973,-9.16878 -0.40246,0.17632 -3.00662,1.28444 -5.78704,2.46249 -2.78042,1.17804 -5.25769,2.33643 -5.50506,2.57424 -0.24736,0.23773 -1.11042,6.80327 -1.91789,14.58996 -1.72335,16.61893 -2.51907,19.03343 -6.98521,21.19589 -2.72451,1.31918 -3.98249,1.38673 -25.06745,1.34613 -12.95404,-0.0255 -22.89502,-0.32049 -23.87025,-0.70968 z m 36.78119,-32.95619 c 0.77438,-7.23047 1.64259,-13.90479 1.92934,-14.83177 1.03165,-3.33514 3.73129,-5.27938 10.419,-7.50368 3.55567,-1.18257 9.47116,-3.61856 13.14552,-5.41331 6.73656,-3.29045 9.03415,-3.78999 12.08889,-2.62834 0.91811,0.34914 6.38465,4.44472 12.14785,9.10131 5.76319,4.65659 10.72391,8.46654 11.02381,8.46654 0.2999,0 4.00513,-3.47037 8.23384,-7.71193 5.77474,-5.79234 7.51912,-7.93191 7.00796,-8.59568 -0.37434,-0.48609 -4.41491,-5.51484 -8.97903,-11.17503 -7.56796,-9.38537 -8.32575,-10.57549 -8.60863,-13.51994 -0.27042,-2.81501 0.08,-4.00579 2.73561,-9.29434 1.67517,-3.33614 4.02572,-9.02153 5.22342,-12.63418 2.34233,-7.06521 3.74837,-9.36106 6.65311,-10.86347 1.42233,-0.73565 24.64932,-3.73519 28.92358,-3.73519 0.56894,0 0.78686,-3.17408 0.78686,-11.46093 0,-8.28682 -0.21782,-11.4609 -0.78686,-11.4609 -4.27426,0 -27.50125,-2.99957 -28.92358,-3.73521 -2.90474,-1.50241 -4.31078,-3.79826 -6.65311,-10.86347 -1.1977,-3.61265 -3.54825,-9.29801 -5.22342,-12.63415 -2.64594,-5.26942 -3.00542,-6.48576 -2.73839,-9.26545 0.27855,-2.89953 1.06017,-4.13437 8.33006,-13.16033 4.41246,-5.478311 8.44124,-10.533339 8.95284,-11.233416 0.85248,-1.166549 0.26752,-1.93739 -7.00236,-9.227696 l -7.93251,-7.954786 -10.18564,8.262693 c -11.00153,8.924554 -13.44886,10.484675 -16.44682,10.484675 -1.07078,0 -5.00876,-1.497618 -8.75109,-3.328066 -3.74233,-1.830444 -9.70136,-4.284038 -13.2423,-5.452447 -7.08637,-2.338296 -9.29145,-4.157834 -10.43439,-8.610069 -0.3526,-1.373603 -1.18069,-8.034107 -1.8402,-14.801119 l -1.19905,-12.303647 h -11.26206 -11.26207 l -0.37691,2.528151 c -0.20737,1.390497 -0.86456,7.382188 -1.46056,13.314892 -1.62182,16.143687 -1.79661,16.383918 -15.46904,21.261601 -3.33647,1.190322 -8.316015,3.340164 -11.065615,4.777473 -8.46156,4.423086 -9.25586,4.144915 -24.99547,-8.753299 l -9.09955,-7.456821 -7.99491,7.973209 -7.99492,7.973183 8.81811,10.901561 c 11.63421,14.382938 11.70366,14.660768 6.33515,25.346918 -1.49024,2.96636 -3.68615,8.3584 -4.87983,11.98234 -3.54227,10.75407 -3.82319,10.90377 -24.44686,13.02806 l -11.29017,1.16293 v 11.35205 c 0,9.09705 0.18139,11.35207 0.91261,11.35207 4.40388,0 26.82246,3.00054 28.55209,3.82147 2.76106,1.31046 4.23887,3.78103 6.58603,11.01031 1.02328,3.15176 3.07895,8.15748 4.5681,11.12385 5.36565,10.6882 5.29656,10.96462 -6.33712,25.34691 l -8.81811,10.90153 7.99492,7.97451 7.99491,7.97448 10.44761,-8.4901 c 10.59791,-8.61221 13.36185,-10.33584 16.57439,-10.33584 0.98387,0 4.86091,1.50223 8.61567,3.33828 3.754755,1.83604 9.253365,4.14364 12.219145,5.12795 10.85135,3.60147 11.15871,4.08019 12.74405,19.84899 0.6151,6.1181 1.28786,12.26871 1.49503,13.668 l 0.37668,2.54415 11.22821,-0.18448 11.2282,-0.18448 z M 123.36498,221.8905 c -23.612085,-5.06479 -41.648415,-22.25926 -47.614755,-45.39228 -2.0562,-7.97244 -2.33574,-19.8497 -0.6498,-27.60765 3.16938,-14.5839 11.55304,-27.80265 23.00821,-36.27762 11.222335,-8.30275 23.546065,-12.44244 37.007305,-12.43123 17.34923,0.0153 30.97539,5.6502 43.18326,17.86046 12.00498,12.00734 17.41213,24.16366 18.29223,41.12448 1.44964,27.93642 -17.35868,53.78092 -44.91679,61.72014 -6.51529,1.87697 -21.72452,2.41621 -28.30966,1.0037 z m 21.93316,-20.26116 c 24.40004,-6.20358 37.80556,-32.84945 28.1465,-55.94613 -3.72694,-8.91178 -10.87871,-16.61701 -19.3647,-20.86324 -6.38244,-3.19362 -11.59174,-4.41819 -18.7951,-4.41819 -9.79375,0 -17.93438,2.82237 -25.89311,8.97719 -3.73486,2.88832 -8.79853,9.01496 -10.953695,13.2531 -4.66039,9.16466 -5.6357,21.60867 -2.46254,31.41923 4.387205,13.56407 15.109495,23.72526 29.076955,27.55537 4.61624,1.26584 15.30895,1.27782 20.24569,0.0229 z"
       style="fill:#000000;stroke-width:0.6741057" />
  </g>
</svg>
